<?xml version="1.0" encoding="UTF-8" standalone="no"?>
<!-- Created with Inkscape (http://www.inkscape.org/) -->

<svg
   xmlns:dc="http://purl.org/dc/elements/1.1/"
   xmlns:cc="http://creativecommons.org/ns#"
   xmlns:rdf="http://www.w3.org/1999/02/22-rdf-syntax-ns#"
   xmlns:svg="http://www.w3.org/2000/svg"
   xmlns="http://www.w3.org/2000/svg"
   xmlns:sodipodi="http://sodipodi.sourceforge.net/DTD/sodipodi-0.dtd"
   xmlns:inkscape="http://www.inkscape.org/namespaces/inkscape"
   width="210mm"
   height="297mm"
   viewBox="0 0 210 297"
   version="1.1"
   id="svg8"
   inkscape:version="0.92.3 (2405546, 2018-03-11)"
   sodipodi:docname="logo.svg"
   inkscape:export-filename="/home/mvl/logo.png"
   inkscape:export-xdpi="20.48781"
   inkscape:export-ydpi="20.48781">
  <defs
     id="defs2" />
  <sodipodi:namedview
     id="base"
     pagecolor="#ffffff"
     bordercolor="#666666"
     borderopacity="1.0"
     inkscape:pageopacity="0.0"
     inkscape:pageshadow="2"
     inkscape:zoom="0.72673325"
     inkscape:cx="-923.50594"
     inkscape:cy="808.30113"
     inkscape:document-units="mm"
     inkscape:current-layer="layer1"
     showgrid="false"
     inkscape:window-width="1920"
     inkscape:window-height="1051"
     inkscape:window-x="1920"
     inkscape:window-y="0"
     inkscape:window-maximized="1"
     inkscape:snap-nodes="false"
     inkscape:snap-others="false" />
  <metadata
     id="metadata5">
    <rdf:RDF>
      <cc:Work
         rdf:about="">
        <dc:format>image/svg+xml</dc:format>
        <dc:type
           rdf:resource="http://purl.org/dc/dcmitype/StillImage" />
        <dc:title></dc:title>
      </cc:Work>
    </rdf:RDF>
  </metadata>
  <g
     inkscape:label="Layer 1"
     inkscape:groupmode="layer"
     id="layer1">
    <circle
       id="path10"
       cx="-365.125"
       cy="80.041664"
       r="30.994047"
       style="stroke-width:0.26458332;fill:#ee9e19;fill-opacity:1"
       inkscape:export-xdpi="20.48781"
       inkscape:export-ydpi="20.48781" />
    <path
       style="fill:#000000;stroke:#000000;stroke-width:0.26458332px;stroke-linecap:butt;stroke-linejoin:miter;stroke-opacity:1;fill-opacity:1"
       d="m -377.85127,62.102462 c 0.44985,-0.08996 12.14522,1.259504 12.14522,1.259504 l -1.61935,17.633061 0.89963,2.788901 -0.53977,2.159151 -1.43944,2.698938 c 0,0 -13.76458,2.159148 -14.12444,2.159148 -0.35986,0 -7.28713,-1.619361 -7.28713,-1.619361 0,0 -0.09,-1.709327 0.53978,-1.979221 0.62976,-0.269893 7.46707,-3.508618 7.91689,-3.598585 0.44982,-0.08996 3.95846,-0.449823 4.40827,-0.449823 0.44982,0 2.06918,-1.259504 2.06918,-1.259504 l -3.23871,-14.484297 1.34945,-3.688548 z"
       id="path4520"
       inkscape:connector-curvature="0"
       inkscape:export-xdpi="20.48781"
       inkscape:export-ydpi="20.48781" />
    <path
       inkscape:connector-curvature="0"
       id="path4522"
       d="m -352.38451,64.711435 c -0.44985,-0.08996 -12.14522,1.259504 -12.14522,1.259504 l 1.61935,17.633061 -0.89963,2.788901 0.53977,2.159151 1.43944,2.698938 c 0,0 13.76458,2.159148 14.12444,2.159148 0.35986,0 7.28713,-1.619361 7.28713,-1.619361 0,0 0.09,-1.709327 -0.53978,-1.979221 -0.62976,-0.269893 -7.46707,-3.508618 -7.91689,-3.598585 -0.44982,-0.08996 -3.95846,-0.449823 -4.40827,-0.449823 -0.44982,0 -2.06918,-1.259504 -2.06918,-1.259504 l 3.23871,-14.484297 -1.34945,-3.688548 z"
       style="fill:#000000;fill-opacity:1;stroke:#000000;stroke-width:0.26458332px;stroke-linecap:butt;stroke-linejoin:miter;stroke-opacity:1"
       inkscape:export-xdpi="20.48781"
       inkscape:export-ydpi="20.48781" />
    <flowRoot
       xml:space="preserve"
       id="flowRoot4524"
       style="fill:black;fill-opacity:1;stroke:none;font-family:sans-serif;font-style:normal;font-weight:normal;font-size:40px;line-height:1.25;letter-spacing:0px;word-spacing:0px"><flowRegion
         id="flowRegion4526"><rect
           id="rect4528"
           width="627.0036"
           height="267.93863"
           x="-1239.0461"
           y="181.33426" /></flowRegion><flowPara
         id="flowPara4530"></flowPara></flowRoot>    <g
       id="g4659"
       inkscape:export-xdpi="20.48781"
       inkscape:export-ydpi="20.48781">
      <path
         d="m -325.69987,53.914621 h 9.76352 q 4.35465,0 6.67713,1.911692 2.33775,1.896634 2.33775,5.418957 0,3.537372 -2.33775,5.449064 -2.32248,1.896634 -6.67713,1.896634 h -3.88092 v 7.797274 h -5.8826 z m 5.8826,4.199692 v 6.276965 h 3.25452 q 1.71126,0 2.6433,-0.812842 0.93209,-0.827903 0.93209,-2.333166 0,-1.505262 -0.93209,-2.318113 -0.93204,-0.812844 -2.6433,-0.812844 z"
         style="font-style:normal;font-variant:normal;font-weight:bold;font-stretch:normal;font-size:42.66666794px;line-height:1.25;font-family:sans-serif;-inkscape-font-specification:'sans-serif Bold';letter-spacing:0px;word-spacing:0px;fill:#000000;fill-opacity:1;stroke:none;stroke-width:0.7279492"
         id="path4542"
         inkscape:connector-curvature="0" />
      <path
         d="m -294.4229,63.879483 q 1.84878,0 2.64331,-0.67737 0.80983,-0.677369 0.80983,-2.227792 0,-1.53537 -0.80983,-2.19769 -0.79453,-0.662318 -2.64331,-0.662318 h -2.47526 v 5.76517 z m -2.47526,4.004008 v 8.504751 h -5.8826 V 53.914621 h 8.98428 q 4.50746,0 6.6007,1.490213 2.10856,1.490212 2.10856,4.711488 0,2.227789 -1.10013,3.657795 -1.08477,1.430004 -3.285,2.107374 1.20704,0.270951 2.15438,1.234317 0.96262,0.948316 1.94047,2.890109 l 3.19343,6.382325 h -6.26461 l -2.78088,-5.584531 q -0.84034,-1.685903 -1.71125,-2.303056 -0.85567,-0.617164 -2.29191,-0.617164 z"
         style="font-style:normal;font-variant:normal;font-weight:bold;font-stretch:normal;font-size:42.66666794px;line-height:1.25;font-family:sans-serif;-inkscape-font-specification:'sans-serif Bold';letter-spacing:0px;word-spacing:0px;fill:#000000;fill-opacity:1;stroke:none;stroke-width:0.7279492"
         id="path4544"
         inkscape:connector-curvature="0" />
      <path
         d="m -264.85723,72.293923 h -9.19824 l -1.45156,4.094319 h -5.91312 l 8.44954,-22.473621 h 7.01325 l 8.44949,22.473621 h -5.91313 z m -7.73141,-4.169591 h 6.24925 l -3.117,-8.94128 z"
         style="font-style:normal;font-variant:normal;font-weight:bold;font-stretch:normal;font-size:42.66666794px;line-height:1.25;font-family:sans-serif;-inkscape-font-specification:'sans-serif Bold';letter-spacing:0px;word-spacing:0px;fill:#000000;fill-opacity:1;stroke:none;stroke-width:0.7279492"
         id="path4546"
         inkscape:connector-curvature="0" />
      <path
         d="m -227.91164,53.914621 h 7.48689 l 5.19505,12.027079 5.22554,-12.027079 h 7.47166 v 22.473621 h -5.56176 V 59.95074 l -5.25609,12.117394 h -3.72821 l -5.25606,-12.117394 v 16.437502 h -5.57702 z"
         style="font-style:normal;font-variant:normal;font-weight:bold;font-stretch:normal;font-size:42.66666794px;line-height:1.25;font-family:sans-serif;-inkscape-font-specification:'sans-serif Bold';letter-spacing:0px;word-spacing:0px;fill:#000000;fill-opacity:1;stroke:none;stroke-width:0.7279492"
         id="path4550"
         inkscape:connector-curvature="0" />
      <path
         d="m -182.89851,72.293923 h -9.19821 l -1.45151,4.094319 h -5.91313 l 8.44949,-22.473621 h 7.01325 l 8.44948,22.473621 h -5.91311 z m -7.73139,-4.169591 h 6.2493 l -3.117,-8.94128 z"
         style="font-style:normal;font-variant:normal;font-weight:bold;font-stretch:normal;font-size:42.66666794px;line-height:1.25;font-family:sans-serif;-inkscape-font-specification:'sans-serif Bold';letter-spacing:0px;word-spacing:0px;fill:#000000;fill-opacity:1;stroke:none;stroke-width:0.7279492"
         id="path4552"
         inkscape:connector-curvature="0" />
      <path
         d="m -177.70352,53.914621 h 21.02448 v 4.380322 h -7.56332 v 18.093299 h -5.8826 V 58.294943 h -7.57856 z"
         style="font-style:normal;font-variant:normal;font-weight:bold;font-stretch:normal;font-size:42.66666794px;line-height:1.25;font-family:sans-serif;-inkscape-font-specification:'sans-serif Bold';letter-spacing:0px;word-spacing:0px;fill:#000000;fill-opacity:1;stroke:none;stroke-width:0.7279492"
         id="path4554"
         inkscape:connector-curvature="0" />
      <path
         d="m -153.65373,53.914621 h 5.88254 v 22.473621 h -5.88254 z"
         style="font-style:normal;font-variant:normal;font-weight:bold;font-stretch:normal;font-size:42.66666794px;line-height:1.25;font-family:sans-serif;-inkscape-font-specification:'sans-serif Bold';letter-spacing:0px;word-spacing:0px;fill:#000000;fill-opacity:1;stroke:none;stroke-width:0.7279492"
         id="path4556"
         inkscape:connector-curvature="0" />
      <path
         d="m -123.88946,75.153925 q -1.61962,0.827895 -3.37673,1.249375 -1.75714,0.421471 -3.66707,0.421471 -5.69921,0 -9.03013,-3.130951 -3.3309,-3.146008 -3.3309,-8.519805 0,-5.388851 3.3309,-8.519807 3.33092,-3.146008 9.03013,-3.146008 1.90993,0 3.66707,0.421479 1.75711,0.421471 3.37673,1.249366 v 4.651279 q -1.63489,-1.098849 -3.22395,-1.610639 -1.58907,-0.511795 -3.34617,-0.511795 -3.14759,0 -4.95054,1.986958 -1.80298,1.986951 -1.80298,5.479167 0,3.477162 1.80298,5.464113 1.80295,1.986949 4.95054,1.986949 1.7571,0 3.34617,-0.511787 1.58906,-0.511794 3.22395,-1.610636 z"
         style="font-style:normal;font-variant:normal;font-weight:bold;font-stretch:normal;font-size:42.66666794px;line-height:1.25;font-family:sans-serif;-inkscape-font-specification:'sans-serif Bold';letter-spacing:0px;word-spacing:0px;fill:#000000;fill-opacity:1;stroke:none;stroke-width:0.7279492"
         id="path4558"
         inkscape:connector-curvature="0" />
      <path
         d="m -197.10707,81.142526 v 4.756645 q -1.87935,-0.827895 -3.66706,-1.249374 -1.78769,-0.421471 -3.37676,-0.421471 -2.10858,0 -3.117,0.572002 -1.00844,0.571995 -1.00844,1.776213 0,0.903159 0.6723,1.414948 0.68759,0.49674 2.47527,0.858 l 2.50579,0.49674 q 3.80455,0.75263 5.4089,2.288 1.60432,1.53537 1.60432,4.36527 0,3.71801 -2.24605,5.539371 -2.23076,1.80633 -6.82989,1.80633 -2.16966,0 -4.35464,-0.40642 -2.18492,-0.40643 -4.36988,-1.20421 v -4.892121 q 2.18496,1.14401 4.21711,1.73106 2.04747,0.57199 3.9421,0.57199 1.9252,0 2.94889,-0.63221 1.02376,-0.63221 1.02376,-1.80632 0,-1.05368 -0.70289,-1.62568 -0.68758,-0.572 -2.76554,-1.02358 l -2.27666,-0.49673 q -3.42256,-0.72253 -5.01163,-2.30306 -1.57375,-1.58053 -1.57375,-4.259907 0,-3.356739 2.20024,-5.163061 2.20023,-1.806317 6.32567,-1.806317 1.87935,0 3.86565,0.285998 1.98629,0.270951 4.11019,0.827894 z"
         style="font-style:normal;font-variant:normal;font-weight:bold;font-stretch:normal;font-size:42.66666794px;line-height:1.25;font-family:sans-serif;-inkscape-font-specification:'sans-serif Bold';letter-spacing:0px;word-spacing:0px;fill:#000000;fill-opacity:1;stroke:none;stroke-width:0.7279492"
         id="path4560"
         inkscape:connector-curvature="0" />
      <path
         d="m -180.00941,84.228326 q -2.68921,0 -4.17128,1.956843 -1.48214,1.95685 -1.48214,5.50927 0,3.53738 1.48214,5.49422 1.48207,1.95684 4.17128,1.95684 2.70445,0 4.18653,-1.95684 1.48208,-1.95684 1.48208,-5.49422 0,-3.55242 -1.48208,-5.50927 -1.48208,-1.956843 -4.18653,-1.956843 z m 0,-4.199692 q 5.50059,0 8.61757,3.100848 3.117,3.100844 3.117,8.564957 0,5.44907 -3.117,8.549921 -3.11698,3.10084 -8.61757,3.10084 -5.48533,0 -8.61757,-3.10084 -3.117,-3.100851 -3.117,-8.549921 0,-5.464113 3.117,-8.564957 3.13224,-3.100848 8.61757,-3.100848 z"
         style="font-style:normal;font-variant:normal;font-weight:bold;font-stretch:normal;font-size:42.66666794px;line-height:1.25;font-family:sans-serif;-inkscape-font-specification:'sans-serif Bold';letter-spacing:0px;word-spacing:0px;fill:#000000;fill-opacity:1;stroke:none;stroke-width:0.7279492"
         id="path4562"
         inkscape:connector-curvature="0" />
      <path
         d="m -145.753,101.67436 q -1.6196,0.8279 -3.37679,1.24937 -1.75711,0.42147 -3.66704,0.42147 -5.69921,0 -9.03015,-3.13095 -3.33086,-3.146011 -3.33086,-8.519811 0,-5.388846 3.33086,-8.519797 3.33094,-3.146008 9.03015,-3.146008 1.90993,0 3.66704,0.421473 1.75719,0.421471 3.37679,1.249371 v 4.651271 q -1.63492,-1.09884 -3.22394,-1.610636 -1.58907,-0.511787 -3.34619,-0.511787 -3.14757,0 -4.95053,1.986951 -1.80301,1.986952 -1.80301,5.479162 0,3.47717 1.80301,5.46412 1.80296,1.98694 4.95053,1.98694 1.75712,0 3.34619,-0.51178 1.58902,-0.51179 3.22394,-1.61063 z"
         style="font-style:normal;font-variant:normal;font-weight:bold;font-stretch:normal;font-size:42.66666794px;line-height:1.25;font-family:sans-serif;-inkscape-font-specification:'sans-serif Bold';letter-spacing:0px;word-spacing:0px;fill:#000000;fill-opacity:1;stroke:none;stroke-width:0.7279492"
         id="path4564"
         inkscape:connector-curvature="0" />
      <path
         d="m -140.86356,80.435055 h 5.88255 v 8.203704 l 8.48006,-8.203704 h 6.82989 l -10.9859,10.642234 12.1166,11.831391 h -7.36471 l -9.07594,-8.850971 v 8.850971 h -5.88255 z"
         style="font-style:normal;font-variant:normal;font-weight:bold;font-stretch:normal;font-size:42.66666794px;line-height:1.25;font-family:sans-serif;-inkscape-font-specification:'sans-serif Bold';letter-spacing:0px;word-spacing:0px;fill:#000000;fill-opacity:1;stroke:none;stroke-width:0.7279492"
         id="path4566"
         inkscape:connector-curvature="0" />
      <path
         d="m -100.72463,81.142526 v 4.756645 q -1.87935,-0.827895 -3.66704,-1.249374 -1.78771,-0.421471 -3.3767,-0.421471 -2.10857,0 -3.117,0.572002 -1.00844,0.571995 -1.00844,1.776213 0,0.903159 0.67222,1.414948 0.68759,0.49674 2.47527,0.858 l 2.50585,0.49674 q 3.80457,0.75263 5.40893,2.288 1.60432,1.53537 1.60432,4.36527 0,3.71801 -2.24606,5.539371 -2.23084,1.80633 -6.82991,1.80633 -2.16963,0 -4.35462,-0.40642 -2.185,-0.40643 -4.3699,-1.20421 v -4.892121 q 2.1849,1.14401 4.21714,1.73106 2.04738,0.57199 3.94207,0.57199 1.9252,0 2.94891,-0.63221 1.0237,-0.63221 1.0237,-1.80632 0,-1.05368 -0.70283,-1.62568 -0.68757,-0.572 -2.76557,-1.02358 l -2.27665,-0.49673 q -3.42262,-0.72253 -5.0116,-2.30306 -1.57384,-1.58053 -1.57384,-4.259907 0,-3.356739 2.20024,-5.163061 2.20023,-1.806317 6.32567,-1.806317 1.87935,0 3.86573,0.285998 1.9863,0.270951 4.11011,0.827894 z"
         style="font-style:normal;font-variant:normal;font-weight:bold;font-stretch:normal;font-size:42.66666794px;line-height:1.25;font-family:sans-serif;-inkscape-font-specification:'sans-serif Bold';letter-spacing:0px;word-spacing:0px;fill:#000000;fill-opacity:1;stroke:none;stroke-width:0.7279492"
         id="path4568"
         inkscape:connector-curvature="0" />
      <path
         sodipodi:open="true"
         d="m -241.81751,76.234364 a 11.500377,11.32971 0 0 1 -12.75055,-6.534001 11.500377,11.32971 0 0 1 3.67785,-13.687665 11.500377,11.32971 0 0 1 14.36207,0.536487 11.500377,11.32971 0 0 1 2.61517,13.922736"
         sodipodi:end="0.49198272"
         sodipodi:start="1.3754877"
         sodipodi:ry="11.32971"
         sodipodi:rx="11.500377"
         sodipodi:cy="65.120056"
         sodipodi:cx="-244.04938"
         sodipodi:type="arc"
         id="path4585"
         style="fill:none;fill-opacity:1;stroke:#ee9e19;stroke-width:5.50260782;stroke-linecap:butt;stroke-miterlimit:4;stroke-dasharray:none;stroke-opacity:1" />
      <path
         sodipodi:nodetypes="cc"
         inkscape:connector-curvature="0"
         id="path4589"
         d="m -241.83977,68.309646 8.38891,9.942127"
         style="fill:none;stroke:#ee9e19;stroke-width:5.50260782;stroke-linecap:butt;stroke-linejoin:miter;stroke-miterlimit:4;stroke-dasharray:none;stroke-opacity:1" />
    </g>
  </g>
</svg>
